<mxfile host="app.diagrams.net" modified="2024-02-05T17:14:52.454Z" agent="Mozilla/5.0 (Windows NT 10.0; Win64; x64) AppleWebKit/537.36 (KHTML, like Gecko) Chrome/120.0.0.0 Safari/537.36" etag="grJD0XoI1Dn55RGSYinJ" version="21.3.5" type="device">
  <diagram name="Page-1" id="iE8djP17FOkl2hfih5kR">
    <mxGraphModel dx="1885" dy="525" grid="1" gridSize="10" guides="1" tooltips="1" connect="1" arrows="1" fold="1" page="1" pageScale="1" pageWidth="850" pageHeight="1100" math="0" shadow="0">
      <root>
        <mxCell id="0" />
        <mxCell id="1" parent="0" />
        <mxCell id="aSsd-QD0u_wB6Nai5cG5-1" value="product" style="ellipse;whiteSpace=wrap;html=1;" vertex="1" parent="1">
          <mxGeometry x="80" y="140" width="120" height="60" as="geometry" />
        </mxCell>
        <mxCell id="aSsd-QD0u_wB6Nai5cG5-2" value="procuct Name" style="ellipse;whiteSpace=wrap;html=1;" vertex="1" parent="1">
          <mxGeometry x="110" y="50" width="120" height="40" as="geometry" />
        </mxCell>
        <mxCell id="aSsd-QD0u_wB6Nai5cG5-3" value="&lt;u&gt;productID&lt;/u&gt;" style="ellipse;whiteSpace=wrap;html=1;" vertex="1" parent="1">
          <mxGeometry x="-20" y="50" width="120" height="40" as="geometry" />
        </mxCell>
        <mxCell id="aSsd-QD0u_wB6Nai5cG5-4" style="edgeStyle=orthogonalEdgeStyle;rounded=0;orthogonalLoop=1;jettySize=auto;html=1;exitX=0.5;exitY=1;exitDx=0;exitDy=0;" edge="1" parent="1" source="aSsd-QD0u_wB6Nai5cG5-2" target="aSsd-QD0u_wB6Nai5cG5-2">
          <mxGeometry relative="1" as="geometry" />
        </mxCell>
        <mxCell id="aSsd-QD0u_wB6Nai5cG5-6" value="Cost Price" style="ellipse;whiteSpace=wrap;html=1;" vertex="1" parent="1">
          <mxGeometry x="260" y="50" width="120" height="40" as="geometry" />
        </mxCell>
        <mxCell id="aSsd-QD0u_wB6Nai5cG5-7" value="Selling Price" style="ellipse;whiteSpace=wrap;html=1;" vertex="1" parent="1">
          <mxGeometry x="-60" y="130" width="120" height="40" as="geometry" />
        </mxCell>
        <mxCell id="aSsd-QD0u_wB6Nai5cG5-8" value="" style="endArrow=none;html=1;rounded=0;entryX=0.383;entryY=1.025;entryDx=0;entryDy=0;entryPerimeter=0;" edge="1" parent="1" source="aSsd-QD0u_wB6Nai5cG5-1" target="aSsd-QD0u_wB6Nai5cG5-6">
          <mxGeometry width="50" height="50" relative="1" as="geometry">
            <mxPoint x="400" y="260" as="sourcePoint" />
            <mxPoint x="450" y="210" as="targetPoint" />
          </mxGeometry>
        </mxCell>
        <mxCell id="aSsd-QD0u_wB6Nai5cG5-9" value="" style="endArrow=none;html=1;rounded=0;exitX=0.6;exitY=0.033;exitDx=0;exitDy=0;exitPerimeter=0;" edge="1" parent="1" source="aSsd-QD0u_wB6Nai5cG5-1">
          <mxGeometry width="50" height="50" relative="1" as="geometry">
            <mxPoint x="400" y="260" as="sourcePoint" />
            <mxPoint x="170" y="90" as="targetPoint" />
          </mxGeometry>
        </mxCell>
        <mxCell id="aSsd-QD0u_wB6Nai5cG5-10" value="" style="endArrow=none;html=1;rounded=0;entryX=1;entryY=1;entryDx=0;entryDy=0;exitX=0;exitY=0;exitDx=0;exitDy=0;" edge="1" parent="1" source="aSsd-QD0u_wB6Nai5cG5-1" target="aSsd-QD0u_wB6Nai5cG5-3">
          <mxGeometry width="50" height="50" relative="1" as="geometry">
            <mxPoint x="80" y="380" as="sourcePoint" />
            <mxPoint x="130" y="330" as="targetPoint" />
          </mxGeometry>
        </mxCell>
        <mxCell id="aSsd-QD0u_wB6Nai5cG5-11" value="" style="endArrow=none;html=1;rounded=0;exitX=0.992;exitY=0.775;exitDx=0;exitDy=0;exitPerimeter=0;entryX=0.025;entryY=0.4;entryDx=0;entryDy=0;entryPerimeter=0;" edge="1" parent="1" source="aSsd-QD0u_wB6Nai5cG5-7" target="aSsd-QD0u_wB6Nai5cG5-1">
          <mxGeometry width="50" height="50" relative="1" as="geometry">
            <mxPoint x="400" y="260" as="sourcePoint" />
            <mxPoint x="450" y="210" as="targetPoint" />
          </mxGeometry>
        </mxCell>
        <mxCell id="aSsd-QD0u_wB6Nai5cG5-12" value="GRN" style="ellipse;whiteSpace=wrap;html=1;" vertex="1" parent="1">
          <mxGeometry x="490" y="180" width="120" height="50" as="geometry" />
        </mxCell>
        <mxCell id="aSsd-QD0u_wB6Nai5cG5-13" style="edgeStyle=orthogonalEdgeStyle;rounded=0;orthogonalLoop=1;jettySize=auto;html=1;exitX=0.5;exitY=1;exitDx=0;exitDy=0;" edge="1" parent="1" source="aSsd-QD0u_wB6Nai5cG5-12" target="aSsd-QD0u_wB6Nai5cG5-12">
          <mxGeometry relative="1" as="geometry" />
        </mxCell>
        <mxCell id="aSsd-QD0u_wB6Nai5cG5-14" value="ProductID" style="ellipse;whiteSpace=wrap;html=1;" vertex="1" parent="1">
          <mxGeometry x="425" y="90" width="120" height="40" as="geometry" />
        </mxCell>
        <mxCell id="aSsd-QD0u_wB6Nai5cG5-15" value="QTY" style="ellipse;whiteSpace=wrap;html=1;" vertex="1" parent="1">
          <mxGeometry x="560" y="85" width="120" height="50" as="geometry" />
        </mxCell>
        <mxCell id="aSsd-QD0u_wB6Nai5cG5-16" value="" style="endArrow=none;html=1;rounded=0;entryX=0.5;entryY=1;entryDx=0;entryDy=0;exitX=0.75;exitY=0;exitDx=0;exitDy=0;exitPerimeter=0;" edge="1" parent="1" source="aSsd-QD0u_wB6Nai5cG5-12" target="aSsd-QD0u_wB6Nai5cG5-15">
          <mxGeometry width="50" height="50" relative="1" as="geometry">
            <mxPoint x="570" y="180" as="sourcePoint" />
            <mxPoint x="620" y="140" as="targetPoint" />
          </mxGeometry>
        </mxCell>
        <mxCell id="aSsd-QD0u_wB6Nai5cG5-17" value="" style="endArrow=none;html=1;rounded=0;entryX=0.5;entryY=1;entryDx=0;entryDy=0;exitX=0;exitY=0;exitDx=0;exitDy=0;" edge="1" parent="1" source="aSsd-QD0u_wB6Nai5cG5-12" target="aSsd-QD0u_wB6Nai5cG5-14">
          <mxGeometry width="50" height="50" relative="1" as="geometry">
            <mxPoint x="420" y="220" as="sourcePoint" />
            <mxPoint x="470" y="170" as="targetPoint" />
          </mxGeometry>
        </mxCell>
        <mxCell id="aSsd-QD0u_wB6Nai5cG5-18" value="Custmoer" style="ellipse;whiteSpace=wrap;html=1;" vertex="1" parent="1">
          <mxGeometry x="240" y="380" width="120" height="50" as="geometry" />
        </mxCell>
        <mxCell id="aSsd-QD0u_wB6Nai5cG5-19" value="custmoerID" style="ellipse;whiteSpace=wrap;html=1;" vertex="1" parent="1">
          <mxGeometry x="180" y="310" width="120" height="40" as="geometry" />
        </mxCell>
        <mxCell id="aSsd-QD0u_wB6Nai5cG5-20" value="Customer Name" style="ellipse;whiteSpace=wrap;html=1;" vertex="1" parent="1">
          <mxGeometry x="320" y="310" width="120" height="40" as="geometry" />
        </mxCell>
        <mxCell id="aSsd-QD0u_wB6Nai5cG5-21" value="Outstanding" style="ellipse;whiteSpace=wrap;html=1;" vertex="1" parent="1">
          <mxGeometry x="410" y="350" width="120" height="40" as="geometry" />
        </mxCell>
        <mxCell id="aSsd-QD0u_wB6Nai5cG5-22" value="" style="endArrow=none;html=1;rounded=0;exitX=0.675;exitY=0.02;exitDx=0;exitDy=0;exitPerimeter=0;entryX=0.5;entryY=1;entryDx=0;entryDy=0;" edge="1" parent="1" source="aSsd-QD0u_wB6Nai5cG5-18" target="aSsd-QD0u_wB6Nai5cG5-20">
          <mxGeometry width="50" height="50" relative="1" as="geometry">
            <mxPoint x="400" y="330" as="sourcePoint" />
            <mxPoint x="450" y="280" as="targetPoint" />
          </mxGeometry>
        </mxCell>
        <mxCell id="aSsd-QD0u_wB6Nai5cG5-23" value="" style="endArrow=none;html=1;rounded=0;entryX=0.033;entryY=0.75;entryDx=0;entryDy=0;entryPerimeter=0;" edge="1" parent="1" source="aSsd-QD0u_wB6Nai5cG5-18" target="aSsd-QD0u_wB6Nai5cG5-21">
          <mxGeometry width="50" height="50" relative="1" as="geometry">
            <mxPoint x="120" y="480" as="sourcePoint" />
            <mxPoint x="170" y="430" as="targetPoint" />
            <Array as="points" />
          </mxGeometry>
        </mxCell>
        <mxCell id="aSsd-QD0u_wB6Nai5cG5-24" value="" style="endArrow=none;html=1;rounded=0;entryX=0.442;entryY=1.025;entryDx=0;entryDy=0;entryPerimeter=0;exitX=0;exitY=0;exitDx=0;exitDy=0;" edge="1" parent="1" source="aSsd-QD0u_wB6Nai5cG5-18" target="aSsd-QD0u_wB6Nai5cG5-19">
          <mxGeometry width="50" height="50" relative="1" as="geometry">
            <mxPoint x="90" y="460" as="sourcePoint" />
            <mxPoint x="140" y="410" as="targetPoint" />
          </mxGeometry>
        </mxCell>
        <mxCell id="aSsd-QD0u_wB6Nai5cG5-25" value="Bill" style="ellipse;whiteSpace=wrap;html=1;" vertex="1" parent="1">
          <mxGeometry x="640" y="440" width="120" height="50" as="geometry" />
        </mxCell>
        <mxCell id="aSsd-QD0u_wB6Nai5cG5-26" value="Bill No" style="ellipse;whiteSpace=wrap;html=1;" vertex="1" parent="1">
          <mxGeometry x="730" y="385" width="120" height="40" as="geometry" />
        </mxCell>
        <mxCell id="aSsd-QD0u_wB6Nai5cG5-27" value="Amout" style="ellipse;whiteSpace=wrap;html=1;" vertex="1" parent="1">
          <mxGeometry x="600" y="375" width="120" height="45" as="geometry" />
        </mxCell>
        <mxCell id="aSsd-QD0u_wB6Nai5cG5-28" value="QTY" style="ellipse;whiteSpace=wrap;html=1;" vertex="1" parent="1">
          <mxGeometry x="485" y="420" width="130" height="40" as="geometry" />
        </mxCell>
        <mxCell id="aSsd-QD0u_wB6Nai5cG5-29" value="" style="endArrow=none;html=1;rounded=0;exitX=0.968;exitY=0.324;exitDx=0;exitDy=0;exitPerimeter=0;entryX=0.414;entryY=1.015;entryDx=0;entryDy=0;entryPerimeter=0;" edge="1" parent="1" source="aSsd-QD0u_wB6Nai5cG5-25" target="aSsd-QD0u_wB6Nai5cG5-26">
          <mxGeometry width="50" height="50" relative="1" as="geometry">
            <mxPoint x="460" y="330" as="sourcePoint" />
            <mxPoint x="800" y="420" as="targetPoint" />
          </mxGeometry>
        </mxCell>
        <mxCell id="aSsd-QD0u_wB6Nai5cG5-30" value="" style="endArrow=none;html=1;rounded=0;entryX=0.684;entryY=1.02;entryDx=0;entryDy=0;entryPerimeter=0;exitX=0.5;exitY=0;exitDx=0;exitDy=0;" edge="1" parent="1" source="aSsd-QD0u_wB6Nai5cG5-25" target="aSsd-QD0u_wB6Nai5cG5-27">
          <mxGeometry width="50" height="50" relative="1" as="geometry">
            <mxPoint x="460" y="330" as="sourcePoint" />
            <mxPoint x="510" y="280" as="targetPoint" />
          </mxGeometry>
        </mxCell>
        <mxCell id="aSsd-QD0u_wB6Nai5cG5-31" value="" style="endArrow=none;html=1;rounded=0;exitX=0.066;exitY=0.771;exitDx=0;exitDy=0;exitPerimeter=0;entryX=0.69;entryY=1.044;entryDx=0;entryDy=0;entryPerimeter=0;" edge="1" parent="1" source="aSsd-QD0u_wB6Nai5cG5-25" target="aSsd-QD0u_wB6Nai5cG5-28">
          <mxGeometry width="50" height="50" relative="1" as="geometry">
            <mxPoint x="270" y="540" as="sourcePoint" />
            <mxPoint x="580" y="460" as="targetPoint" />
          </mxGeometry>
        </mxCell>
      </root>
    </mxGraphModel>
  </diagram>
</mxfile>
